<svg width="168" height="168" fill="none" xmlns="http://www.w3.org/2000/svg">
    <path d="M100.283 0L.41 99.873v67.717L168 0h-67.717z" fill="#BD9628" opacity=".8"/>
    <path d="M56.813 90.93l3.668-3.497-18.712-9.317-4.012 3.826 8.417 19.133 3.628-3.459-1.545-3.324 5.309-5.063 3.247 1.702zm-6.69-3.525l-3.505 3.343-3.223-6.87 6.729 3.527zm7.892-12.632l-3.4-3.567 1.884-1.797c1.378-1.314 2.622-1.185 3.666-.09 1.043 1.094 1.113 2.343-.265 3.657l-1.885 1.797zm5.676-8.817c-2.493-2.614-6.11-2.918-9.595.406l-5.613 5.352L62.047 85.94l3.465-3.304-4.869-5.106 2.148-2.048c3.627-3.46 3.141-7.174.9-9.525zm6.15-14.609l-8.713 8.31 13.564 14.225 8.714-8.31-2.647-2.775L75.51 67.8l-2.975-3.12 4.64-4.425-2.55-2.675-4.641 4.425-2.744-2.878 5.249-5.004-2.648-2.777zm6.544-6.24L89.95 59.334l8.004-7.633-2.55-2.675-4.54 4.329-11.014-11.55-3.465 3.304zm19.19-6.15l-3.401-3.566 1.884-1.797c1.378-1.314 2.623-1.185 3.666-.09 1.044 1.093 1.113 2.343-.265 3.657l-1.884 1.797zm5.675-8.816c-2.492-2.614-6.11-2.918-9.595.406l-5.613 5.352 13.565 14.225 3.465-3.304-4.87-5.106 2.149-2.049c3.627-3.458 3.141-7.173.899-9.524z"
          fill="#fff"/>
</svg>