<svg version="1.1" id="Layer_1" xmlns="http://www.w3.org/2000/svg" x="0" y="0" viewBox="0 0 168 168"
     xml:space="preserve"><style>.st2{fill:#fff}</style>
    <path d="M100.3 0L.4 99.9v67.7L168 0h-67.7z" opacity=".8" fill="#41aa29" id="Layer_1_1_"/>
    <g id="Layer_2_1_"><path class="st2" d="M45 104.8L30.8 90.6l4.6-4.6c1.7-1.7 3-2.8 3.6-3.2 1-.6 2.2-.8 3.4-.7 1.3.2 2.5.8 3.6 1.9.9.9 1.4 1.8 1.7 2.7.3.9.3 1.8.2 2.6s-.4 1.5-.8 2.2c-.5.8-1.5 1.9-2.8 3.2l-1.9 1.9 5.4 5.4-2.8 2.8zm-8.9-14.7l4 4 1.6-1.6c1.1-1.1 1.8-2 2-2.5.2-.5.3-1.1.2-1.6s-.4-1-.8-1.4c-.5-.5-1.1-.8-1.7-.8-.6 0-1.2.1-1.8.5-.4.3-1.1.9-2.2 2l-1.3 1.4zM52.9 87.7l2.5-3.1c1.1.8 2.1 1.1 3.1 1 1-.1 1.9-.5 2.7-1.4.9-.9 1.4-1.8 1.5-2.7.1-.9-.1-1.5-.7-2.1-.3-.3-.7-.5-1.2-.6s-1 .1-1.6.4c-.5.2-1.4.8-2.9 1.7-1.9 1.2-3.5 1.8-4.6 1.8-1.7.1-3-.4-4.2-1.5a5.1 5.1 0 01-1.4-2.6c-.2-1-.1-2.1.3-3.2s1.2-2.2 2.3-3.3c1.8-1.8 3.5-2.7 5.2-2.9 1.7-.1 3.2.5 4.5 1.7l-2.7 3c-.9-.6-1.6-.9-2.4-.8s-1.5.5-2.3 1.3c-.8.8-1.3 1.7-1.4 2.5-.1.5.1 1 .4 1.3.3.3.8.5 1.3.4.7-.1 1.9-.6 3.6-1.7 1.7-1.1 3.1-1.8 4.1-2.1 1-.3 2-.4 3-.1 1 .2 1.9.8 2.8 1.7.8.8 1.3 1.8 1.6 3 .3 1.2.1 2.3-.3 3.5-.5 1.2-1.3 2.4-2.6 3.6-1.8 1.8-3.6 2.8-5.4 2.9-1.6.3-3.4-.3-5.2-1.7zM75.4 64l3.7-1.9c1.1 2 1.6 3.8 1.3 5.6-.2 1.7-1.1 3.4-2.6 4.9-1.9 1.9-4.1 2.8-6.6 2.7-2.5-.1-4.9-1.2-7.1-3.5-2.4-2.4-3.6-4.8-3.7-7.3-.1-2.5.9-4.8 2.9-6.8C65 56 67 55.1 69.1 55c1.3 0 2.6.3 4.1 1.2L71 59.7c-.9-.6-1.8-.8-2.8-.7-1 .1-1.8.5-2.6 1.3-1.1 1.1-1.5 2.3-1.4 3.7.1 1.4 1 3 2.7 4.7 1.8 1.8 3.4 2.8 4.8 2.9 1.4.1 2.6-.3 3.7-1.4.8-.8 1.2-1.7 1.2-2.7-.1-1-.4-2.2-1.2-3.5zM91.4 58.4L77.3 44.3l2.9-2.9 11.7 11.7L99 46l2.4 2.4-10 10zM103.4 46.4L89.2 32.2l4.6-4.6c1.7-1.7 3-2.8 3.6-3.2 1-.6 2.2-.8 3.4-.7 1.3.2 2.5.8 3.6 1.9.9.9 1.4 1.8 1.7 2.7.3.9.3 1.8.2 2.6-.1.8-.4 1.5-.8 2.2-.5.8-1.5 1.9-2.8 3.2l-1.9 1.9 5.4 5.4-2.8 2.8zm-8.9-14.7l4 4 1.6-1.6c1.1-1.1 1.8-2 2-2.5.2-.5.3-1.1.2-1.6-.1-.5-.4-1-.8-1.4-.5-.5-1.1-.8-1.7-.8-.6 0-1.2.1-1.8.5-.4.3-1.1.9-2.2 2l-1.3 1.4z"/></g></svg>