<svg xmlns="http://www.w3.org/2000/svg" viewBox="0 0 168 168">
  <title>ribbon_pcs</title>
  <path d="M100.3,0,.4,99.9v67.7L168,0Z" style="fill: #41aa29;opacity: 0.800000011920929;isolation: isolate"/>
  <g style="isolation: isolate">
    <path d="M42,108.3,28.5,94.9l4.4-4.4a19.57,19.57,0,0,1,3.4-3,4.71,4.71,0,0,1,3.3-.6A6.67,6.67,0,0,1,43,88.7a5.87,5.87,0,0,1,1.6,2.5,5.43,5.43,0,0,1,.2,2.5,4.85,4.85,0,0,1-.8,2.1,19.32,19.32,0,0,1-2.6,3l-1.8,1.8,5.1,5.1ZM33.5,94.4l3.8,3.8,1.5-1.5a8.85,8.85,0,0,0,1.9-2.4,2.62,2.62,0,0,0,.2-1.5,2.67,2.67,0,0,0-.7-1.4,2.25,2.25,0,0,0-1.6-.8,2.62,2.62,0,0,0-1.7.5A21.62,21.62,0,0,0,34.8,93Z" style="fill: #fff"/>
    <path d="M58.2,82.2l3.5-1.8a7.56,7.56,0,0,1-1.2,10A8.1,8.1,0,0,1,54.3,93a10,10,0,0,1-6.7-3.3,10.69,10.69,0,0,1-3.5-7,8.27,8.27,0,0,1,2.7-6.4,8.36,8.36,0,0,1,5.5-2.6,7.74,7.74,0,0,1,3.9,1.1l-2.1,3.3a4.39,4.39,0,0,0-2.7-.7,4.49,4.49,0,0,0-2.5,1.2,4.39,4.39,0,0,0-1.4,3.5c.1,1.3.9,2.8,2.6,4.4s3.2,2.6,4.6,2.7a4.3,4.3,0,0,0,3.5-1.3,4.2,4.2,0,0,0,1.2-2.6A7.2,7.2,0,0,0,58.2,82.2Z" style="fill: #fff"/>
    <path d="M63.1,78.5l2.4-2.9a4.44,4.44,0,0,0,2.9,1A4.31,4.31,0,0,0,71,75.3a3.79,3.79,0,0,0,1.4-2.5,2.32,2.32,0,0,0-.6-2,1.61,1.61,0,0,0-1.1-.5,4.08,4.08,0,0,0-1.6.4,28.6,28.6,0,0,0-2.8,1.6A9.47,9.47,0,0,1,61.9,74a4.93,4.93,0,0,1-4-1.5A4.66,4.66,0,0,1,56.6,70a5.19,5.19,0,0,1,.3-3,8.49,8.49,0,0,1,2.2-3.1c1.7-1.7,3.3-2.6,4.9-2.7a5.55,5.55,0,0,1,4.3,1.6l-2.6,2.8a3,3,0,0,0-2.2-.7,4,4,0,0,0-2.2,1.3,5.27,5.27,0,0,0-1.4,2.3,1.57,1.57,0,0,0,.4,1.3,1.29,1.29,0,0,0,1.2.4,11.4,11.4,0,0,0,3.4-1.6,18,18,0,0,1,3.9-2,5.71,5.71,0,0,1,2.9-.1,6.42,6.42,0,0,1,2.7,1.6,5.14,5.14,0,0,1,1.5,2.8,6.24,6.24,0,0,1-.3,3.3,11.82,11.82,0,0,1-2.4,3.4,8,8,0,0,1-5.1,2.7A7.36,7.36,0,0,1,63.1,78.5Z" style="fill: #fff"/>
    <path d="M86,64.3,72.6,50.9l2.7-2.7L86.4,59.3l6.8-6.8,2.3,2.3Z" style="fill: #fff"/>
    <path d="M97.4,52.9,84,39.4,88.4,35a19.57,19.57,0,0,1,3.4-3,4.71,4.71,0,0,1,3.3-.6,6.67,6.67,0,0,1,3.4,1.8,5.87,5.87,0,0,1,1.6,2.5,5.43,5.43,0,0,1,.2,2.5,4.85,4.85,0,0,1-.8,2.1,19.32,19.32,0,0,1-2.6,3l-1.8,1.8,5.1,5.1ZM89,39l3.8,3.8,1.5-1.5a8.85,8.85,0,0,0,1.9-2.4,2.62,2.62,0,0,0,.2-1.5,2.67,2.67,0,0,0-.7-1.4,2.25,2.25,0,0,0-1.6-.8,2.62,2.62,0,0,0-1.7.5,21.62,21.62,0,0,0-2.1,1.9Z" style="fill: #fff"/>
  </g>
</svg>
